<!DOCTYPE svg PUBLIC "-//W3C//DTD SVG 1.1//EN" "http://www.w3.org/Graphics/SVG/1.1/DTD/svg11.dtd">

<!-- Uploaded to: SVG Repo, www.svgrepo.com, Transformed by: SVG Repo Mixer Tools -->
<svg fill="#008DDA" width="256px" height="256px" viewBox="-2.4 -2.4 28.80 28.80" role="img" xmlns="http://www.w3.org/2000/svg" stroke="#008DDA" stroke-width="0.00024000000000000003" transform="matrix(1, 0, 0, 1, 0, 0)rotate(0)">

<g id="SVGRepo_bgCarrier" stroke-width="0">

<path transform="translate(-2.4, -2.4), scale(0.8999999999999999)" d="M16,31.863026414066553C18.292053042214746,32.24317578718088,20.34066210069629,30.271229628513776,22.204940819181164,28.884692375494772C23.88734522045319,27.633422190475102,24.806504965250525,25.687164381020988,26.292561863071498,24.20804418922542C27.97721039130224,22.531259365011394,30.684861519586175,21.758319190704267,31.577843476486446,19.5555411185792C32.46613804432991,17.36432574125449,32.059876168790645,14.692275340573863,31.008731249231314,12.57435503348743C29.989957537622843,10.521658500409993,27.329288127559778,9.896261596486934,25.89629793036532,8.107965752081647C24.467603827215164,6.32503120543097,24.671895828276014,3.252082886783754,22.664447850255158,2.161131442604656C20.68061480665425,1.0830135797146914,18.222187519771488,2.3300359035692155,16,2.729803708847612C14.06098193422086,3.0786298046000535,12.207902858221113,3.5889885636373067,10.398229428730865,4.367803550070397C8.533101194220338,5.170484186800228,6.670763625805892,5.989358780196915,5.192203971240438,7.381070274595322C3.6068154746863126,8.87333566066109,1.6633518288949172,10.526773672050716,1.545229394701158,12.700792935533979C1.4236154210228769,14.939073269747553,4.09698248068771,16.417601468473904,4.5823117027839775,18.606012846460338C5.071816572118881,20.813252750551214,3.0035292101635265,23.47503207961557,4.33920280015445,25.299175460031275C5.65368359540156,27.094375619188337,8.774024324069703,25.887266326443342,10.71294500674166,26.978682818355544C12.830302898726767,28.170541434979512,13.602985360106196,31.465468593231392,16,31.863026414066553" fill="#fff" strokewidth="0"/>

</g>

<g id="SVGRepo_tracerCarrier" stroke-linecap="round" stroke-linejoin="round" stroke="#CCCCCC" stroke-width="0.048"/>

<g id="SVGRepo_iconCarrier">

<title>Zhihu icon</title>

<path d="M5.721 0C2.251 0 0 2.25 0 5.719V18.28C0 21.751 2.252 24 5.721 24h12.56C21.751 24 24 21.75 24 18.281V5.72C24 2.249 21.75 0 18.281 0zm1.964 4.078c-.271.73-.5 1.434-.68 2.11h4.587c.545-.006.445 1.168.445 1.171H9.384a58.104 58.104 0 01-.112 3.797h2.712c.388.023.393 1.251.393 1.266H9.183a9.223 9.223 0 01-.408 2.102l.757-.604c.452.456 1.512 1.712 1.906 2.177.473.681.063 2.081.063 2.081l-2.794-3.382c-.653 2.518-1.845 3.607-1.845 3.607-.523.468-1.58.82-2.64.516 2.218-1.73 3.44-3.917 3.667-6.497H4.491c0-.015.197-1.243.806-1.266h2.71c.024-.32.086-3.254.086-3.797H6.598c-.136.406-.158.447-.268.753-.594 1.095-1.603 1.122-1.907 1.155.906-1.821 1.416-3.6 1.591-4.064.425-1.124 1.671-1.125 1.671-1.125zM13.078 6h6.377v11.33h-2.573l-2.184 1.373-.401-1.373h-1.219zm1.313 1.219v8.86h.623l.263.937 1.455-.938h1.456v-8.86z"/>

</g>

</svg>