<!DOCTYPE svg PUBLIC "-//W3C//DTD SVG 1.1//EN" "http://www.w3.org/Graphics/SVG/1.1/DTD/svg11.dtd">
<!-- Uploaded to: SVG Repo, www.svgrepo.com, Transformed by: SVG Repo Mixer Tools -->
<svg fill="#00224D" width="256px" height="256px" viewBox="-2.4 -2.4 28.80 28.80" role="img" xmlns="http://www.w3.org/2000/svg" stroke="#00224D" stroke-width="0.00024000000000000003" transform="matrix(1, 0, 0, 1, 0, 0)rotate(0)">
<g id="SVGRepo_bgCarrier" stroke-width="0">
<path transform="translate(-2.4, -2.4), scale(0.8999999999999999)" d="M16,31.40672734595443C18.53140496850127,32.15274813204064,20.593522935220737,28.751569946462453,22.118678302161,26.597861694512133C23.360936655593974,24.843639059338734,23.0028113769338,22.4887329869119,23.744120560276784,20.47107009011272C24.330450529961507,18.8752228354229,25.660049117291518,17.66323003914546,26.012436873230495,16C26.41436608935274,14.102939916049557,26.859077091191086,11.969601366127678,25.902735655228113,10.282652903740345C24.945978982244498,8.59497197967441,22.445629835856636,8.599350201513495,21.0519123976364,7.249831051906661C19.035584783462248,5.297446262430352,18.66155118264976,1.584760213844866,16.000000000000004,0.693957926019241C13.479773372620548,-0.14954403634903624,10.413095399876507,1.1847889425716032,8.528035858744072,3.058178475011969C6.685247765094914,4.889558253644397,7.661951236953147,8.189412574295474,6.258123200383498,10.375524807329235C4.745729709935366,12.730700672535892,-0.3961669793187209,13.26910559066523,0.21735005472835667,15.999999999999996C0.9118441472133944,19.091340466901983,5.846856958087227,18.593587330668818,8.495134435672977,20.332936153796155C9.76753456043678,21.168629421698192,10.806696835813781,22.25567401889412,11.660728427042299,23.51583883220205C13.373953934372345,26.043785718210476,13.07076263242123,30.5434628778879,16,31.40672734595443" fill="#E72929" strokewidth="0"/>
</g>
<g id="SVGRepo_tracerCarrier" stroke-linecap="round" stroke-linejoin="round" stroke="#CCCCCC" stroke-width="0.048"/>
<g id="SVGRepo_iconCarrier">
<title>Zhihu icon</title>
<path d="M5.721 0C2.251 0 0 2.25 0 5.719V18.28C0 21.751 2.252 24 5.721 24h12.56C21.751 24 24 21.75 24 18.281V5.72C24 2.249 21.75 0 18.281 0zm1.964 4.078c-.271.73-.5 1.434-.68 2.11h4.587c.545-.006.445 1.168.445 1.171H9.384a58.104 58.104 0 01-.112 3.797h2.712c.388.023.393 1.251.393 1.266H9.183a9.223 9.223 0 01-.408 2.102l.757-.604c.452.456 1.512 1.712 1.906 2.177.473.681.063 2.081.063 2.081l-2.794-3.382c-.653 2.518-1.845 3.607-1.845 3.607-.523.468-1.58.82-2.64.516 2.218-1.73 3.44-3.917 3.667-6.497H4.491c0-.015.197-1.243.806-1.266h2.71c.024-.32.086-3.254.086-3.797H6.598c-.136.406-.158.447-.268.753-.594 1.095-1.603 1.122-1.907 1.155.906-1.821 1.416-3.6 1.591-4.064.425-1.124 1.671-1.125 1.671-1.125zM13.078 6h6.377v11.33h-2.573l-2.184 1.373-.401-1.373h-1.219zm1.313 1.219v8.86h.623l.263.937 1.455-.938h1.456v-8.86z"/>
</g>
</svg>